# xmcd
#
# Track frame offsets: 
#        150
#        13814
#        32025
#        42537
#        54763
#        69251
#        82276
#        103562
#        118945
#        130785
#        145038
#        155361
#        167739
#        184728
#        207673
#        222900
#        235024
#        247486
#
# Disc length: 3462 seconds
#
# Revision: 2
# Processed by: cddbd v1.5.2PL0 Copyright (c) Steve Scherf et al.
# Submitted via: ExactAudioCopyFreeDBPlugin 1.0
#
DISCID=080d8412
DTITLE=Antonio Carlos Jobim - Jazzclub Legends - One Note Samba
DYEAR=2006
DGENRE=Jazz
TTITLE0=Samba Do Soho
TTITLE1=Remember
TTITLE2=Look To The Sky
TTITLE3=The Girl From Ipanema
TTITLE4=Chovendo Na Roseira
TTITLE5=Wave
TTITLE6=Takatanga
TTITLE7=Isabella
TTITLE8=Vivo Sonhando (Dreamer)
TTITLE9=Antigua
TTITLE10=Samba De Uma Nota So (One Note Samba)
TTITLE11=Caribe
TTITLE12=Anos Dourados
TTITLE13=The Red Blouse
TTITLE14=O Morro Nao Tem Vez
TTITLE15=Triste
TTITLE16=Desafinado
TTITLE17=Lamento
EXTD=YEAR: 2006
EXTT0=
EXTT1=
EXTT2=
EXTT3=
EXTT4=
EXTT5=
EXTT6=
EXTT7=
EXTT8=
EXTT9=
EXTT10=
EXTT11=
EXTT12=
EXTT13=
EXTT14=
EXTT15=
EXTT16=
EXTT17=
PLAYORDER=
